# xmcd
#
# Track frame offsets: 
#        150
#        19749
#        39466
#        53182
#        74692
#        94680
#        113628
#        129763
#        146690
#        162782
#
# Disc length: 2409 seconds
#
# Revision: 0
# Processed by: cddbd v1.5.2PL0 Copyright (c) Steve Scherf et al.
# Submitted via: ExactAudioCopy v1.1
#
DISCID=8109670a
DTITLE=Alabama - Roll On (Remastered)
DYEAR=1984
DGENRE=Country
TTITLE0=Roll On (Eighteen Wheeler)
TTITLE1=Carolina Mountain Dew
TTITLE2=The End Of The Lyin'
TTITLE3=I'm Not That Way Anymore
TTITLE4=If Your Gonna Play In Texas (You Gotta Have A Fiddle In The Ba
TTITLE4=nd)
TTITLE5=(There's A) Fire In The Night
TTITLE6=When We Make Love
TTITLE7=Country Side Of Life
TTITLE8=The Boy
TTITLE9=Food On The Table
EXTD=
EXTT0=
EXTT1=
EXTT2=
EXTT3=
EXTT4=
EXTT5=
EXTT6=
EXTT7=
EXTT8=
EXTT9=
PLAYORDER=
